<?xml version="1.0" encoding="utf-8"?>
<!-- Generator: Adobe Illustrator 27.0.0, SVG Export Plug-In . SVG Version: 6.00 Build 0)  -->
<svg version="1.1" id="Layer_1" xmlns="http://www.w3.org/2000/svg" xmlns:xlink="http://www.w3.org/1999/xlink" x="0px" y="0px"
	 viewBox="0 0 1000 1000" style="enable-background:new 0 0 1000 1000;" xml:space="preserve">
<style type="text/css">
	.st0{fill:#010100;}
	.st1{fill:#F13D18;}
	.st2{fill:#45B94C;}
	.st3{fill:#FCD629;}
	.st4{fill:#00A9DE;}
	.st5{fill:#0C0101;}
	.st6{fill:#F53831;}
	.st7{fill:#FED8BC;}
	.st8{fill:#FEFEFE;}
	.st9{fill:#FDBE7F;}
	.st10{fill:#0079BD;}
	.st11{fill:#9B5F3F;}
	.st12{fill:#0078BD;}
	.st13{fill:#FEF12F;}
	.st14{fill:#FDF02F;}
	.st15{fill:#FEFDFD;}
	.st16{fill:#FBFBFB;}
	.st17{fill:#0078BC;}
	.st18{fill:#F7F7F7;}
	.st19{fill:#985D3E;}
	.st20{fill:#08C2E1;}
	.st21{fill:#EECAB1;}
	.st22{fill:#E6E5E5;}
	.st23{fill:#221E21;}
	.st24{fill:#B69885;}
	.st25{fill:#CDAD97;}
	.st26{fill:#1D1C20;}
	.st27{fill:#235D91;}
	.st28{fill:#FAD5B9;}
	.st29{fill:#955276;}
	.st30{fill:#5C4C75;}
	.st31{fill:#0C0102;}
	.st32{fill:#0E0303;}
	.st33{fill:#100606;}
	.st34{fill:#100505;}
	.st35{fill:#120708;}
	.st36{fill:#190E03;}
	.st37{fill:#1E1303;}
	.st38{fill:#14181B;}
	.st39{fill:#FDFDFD;}
	.st40{fill:#08CAE9;}
	.st41{fill:#15171B;}
	.st42{fill:#EDECEC;}
	.st43{fill:#282A2E;}
	.st44{fill:#19191C;}
	.st45{fill:#2E3D41;}
	.st46{fill:#090C0A;}
	.st47{fill:#01B061;}
	.st48{fill:#FCFCFC;}
	.st49{fill:#F89134;}
	.st50{fill:#F04938;}
	.st51{fill:#06070C;}
	.st52{fill:#05070A;}
	.st53{fill:#060606;}
	.st54{fill:#060607;}
	.st55{fill:#05070B;}
	.st56{fill:#050807;}
	.st57{fill:#060708;}
	.st58{fill:#04080B;}
	.st59{fill:#070606;}
	.st60{fill:#070707;}
	.st61{fill:#0A0606;}
	.st62{fill:#FED9BF;}
	.st63{fill:#9F6443;}
	.st64{fill:#FEDAC0;}
	.st65{fill:#070605;}
	.st66{fill:#2675AF;}
	.st67{fill:#2A71A6;}
	.st68{fill:#2077B5;}
	.st69{fill:#206B9E;}
	.st70{fill:#2A71A7;}
	.st71{fill:#050D1A;}
	.st72{fill:#081020;}
	.st73{fill:#030C1B;}
	.st74{fill:#031425;}
	.st75{fill:#00B45F;}
	.st76{fill:#9F6344;}
	.st77{fill:#01B45F;}
	.st78{fill:#03080D;}
	.st79{fill:#339C62;}
	.st80{fill:#906049;}
	.st81{fill:#31A064;}
	.st82{fill:#2F9E67;}
	.st83{fill:#359E64;}
	.st84{fill:#329F69;}
	.st85{fill:#2FA165;}
	.st86{fill:#EDFBEF;}
	.st87{fill:#2FA564;}
	.st88{fill:#359F65;}
	.st89{fill:#34A26A;}
	.st90{fill:#36A36B;}
	.st91{fill:#01220B;}
	.st92{fill:#389F67;}
	.st93{fill:#339D64;}
	.st94{fill:#30A367;}
	.st95{fill:#35A66D;}
	.st96{fill:#34A368;}
	.st97{fill:#349D64;}
	.st98{fill:#369C66;}
	.st99{fill:#359866;}
	.st100{fill:#1C9154;}
	.st101{fill:#31A161;}
	.st102{fill:#29A567;}
	.st103{fill:#AAD0B4;}
	.st104{fill:#339E68;}
	.st105{fill:#37A266;}
	.st106{fill:#389864;}
	.st107{fill:#38AA71;}
	.st108{fill:#3BA16C;}
	.st109{fill:#3BA66C;}
	.st110{fill:#05060A;}
	.st111{fill:#06070A;}
	.st112{fill:#0E0E0E;}
	.st113{fill:#2F9F65;}
	.st114{fill:#30A068;}
	.st115{fill:#33A067;}
	.st116{fill:#30A16B;}
	.st117{fill:#31A066;}
	.st118{fill:#349C6B;}
	.st119{fill:#06090E;}
	.st120{fill:#90604A;}
	.st121{fill:#37A067;}
	.st122{fill:#379965;}
	.st123{fill:#2DB06A;}
	.st124{fill:#32A063;}
	.st125{fill:#329D66;}
	.st126{fill:#4F4F4F;}
	.st127{fill:#34A168;}
	.st128{fill:#319D66;}
	.st129{fill:#33A066;}
	.st130{fill:#339D68;}
	.st131{fill:#299F62;}
	.st132{fill:#2674A8;}
	.st133{fill:#04080A;}
	.st134{fill:#167AB9;}
	.st135{fill:#2B6893;}
	.st136{fill:#051019;}
	.st137{fill:#030F1B;}
	.st138{fill:#9F6343;}
	.st139{fill:#91604B;}
	.st140{fill:#8E5F49;}
	.st141{fill:#93614C;}
	.st142{fill:#1479B9;}
	.st143{fill:#041326;}
	.st144{fill:#3AA06D;}
	.st145{fill:#855C46;}
	.st146{fill:#F2E03C;}
	.st147{fill:#0A0A0D;}
	.st148{fill:#0E7CBC;}
	.st149{fill:#157ABB;}
	.st150{fill:#0B78B4;}
	.st151{fill:#0E7BBC;}
	.st152{fill:#147ABE;}
	.st153{fill:#0A7BBB;}
	.st154{fill:#1F79BC;}
	.st155{fill:#147ABC;}
	.st156{fill:#05080D;}
	.st157{fill:#090706;}
	.st158{fill:#08090C;}
	.st159{fill:#120C08;}
	.st160{fill:#091019;}
	.st161{fill:#32B26A;}
	.st162{fill:#EF3D36;}
	.st163{fill:#FCFDFD;}
	.st164{fill:#C43C37;}
	.st165{fill:#349A69;}
	.st166{fill:#FAFBFB;}
	.st167{fill:#08B3DC;}
	.st168{fill:#ECEDEE;}
	.st169{fill:#418097;}
	.st170{fill:#298AA6;}
	.st171{fill:#080808;}
	.st172{fill:#090909;}
	.st173{fill:#1A77B6;}
	.st174{fill:#2376B2;}
	.st175{fill:#2377B6;}
	.st176{fill:#216996;}
	.st177{fill:#369F66;}
	.st178{fill:#349F64;}
	.st179{fill:#276FA9;}
	.st180{fill:#246B9A;}
	.st181{fill:#070E1C;}
	.st182{fill:#319D65;}
	.st183{fill:#1C78B6;}
	.st184{fill:#107BBC;}
	.st185{fill:#F8E334;}
	.st186{fill:#231302;}
	.st187{fill:#4D3809;}
	.st188{fill:#FDFCFC;}
	.st189{fill:#04B5E1;}
	.st190{fill:#F5F6F8;}
	.st191{fill:#578FA0;}
	.st192{fill:#398096;}
	.st193{fill:#070D11;}
	.st194{fill:#1778B9;}
	.st195{fill:#1C77B9;}
	.st196{fill:#060A18;}
	.st197{fill:#090C15;}
	.st198{fill:#090A0A;}
	.st199{fill:#087BBC;}
	.st200{fill:#070E20;}
	.st201{fill:#070F1D;}
	.st202{fill:#F8E333;}
	.st203{fill:#1F1208;}
	.st204{fill:#12130E;}
	.st205{fill:#2B2615;}
	.st206{fill:#F4E04A;}
	.st207{fill:#1A0F04;}
	.st208{fill:#EBD763;}
	.st209{fill:#EBDA6B;}
	.st210{fill:#4F3605;}
	.st211{fill:#D8CB50;}
	.st212{fill:#513C0D;}
	.st213{fill:#F63E43;}
	.st214{fill:#F73B37;}
</style>
<g id="vuD0tG.tif">
	<g>
		<path class="st5" d="M200.54,573.33c3.58-3.79,3.06-9.44,6.11-13.48c0.28-0.37,0.17-1.07,0.47-1.4
			c10.12-11.18,16.36-25.68,29.64-34.2c9.1-5.84,18.98-8.67,29.65-9.74c15.09-1.52,29.01,1.5,41.97,9.33
			c7.55,4.56,13.46,10.75,17.62,18.42c1.88,3.46,4.1,4.9,7.87,4.26c0.97-0.16,2.13-0.37,2.95,0c6.31,2.89,7.84-0.85,8.85-5.95
			c1.38-6.96,4.53-13.35,7.41-20.32c-8.75,0.29-17.01-0.47-25.25-2.25c-14.51-3.13-25.79-16.32-25.84-31.08
			c-0.01-3.14-0.19-6.3,0.04-9.42c0.16-2.22-0.59-3.7-2.09-5.25c-5.94-6.12-9.53-13.08-6.72-21.89c0.63-1.97-0.43-3.28-1.43-4.48
			c-9.78-11.75-11.65-25.21-8.26-39.59c4.95-20.99,17.96-36.4,34.71-49.14c11.5-8.74,24.29-14.77,38.54-16.9
			c26.08-3.9,50.51,9.95,56.49,37.21c0.83,3.8,1.57,7.74,0.63,11.7c-0.41,1.74,0.04,3.14,1.34,4.5c9.1,9.57,10.22,21.57,3.23,32.76
			c-4.03,6.44-9.43,11.48-15.59,15.82c-1.56,1.1-3.59,1.74-4.85,4.69c14.62-2.27,28.86-1.59,43.81-1.72
			c-3.04-5.81-7.3-10.02-9.6-15.42c-3.74-8.78-5.65-17.73-4.48-27.37c0.59-4.85-2.29-9.54-1.71-14.56c0.03-0.26-0.67-0.64-1.07-0.9
			c-7.47-4.85-9.19-8.48-6.15-16.13c1.38-3.46,0.69-6-0.76-8.8c-11.77-22.82,0.72-58.75,31.23-63.46c9.86-1.53,19.8-0.65,29.21,3.31
			c1.59,0.67,3.3,2.35,4.56-0.31c1.22-2.57,4.91-4.45,2.04-8.21c-8.37-10.93-15.63-22.54-20.89-35.31
			c-6.01-14.6-8.2-29.43-2.37-44.68c4.64-12.14,17.8-20.99,30.8-21.39c16.88-0.52,32.34,3.78,46.6,12.59
			c3.22,1.99,4.89,0.42,7.03-1.7c17.66-17.51,38.86-27,63.85-26.7c18.21,0.21,33.78,7.66,47.66,19.19
			c21.28,17.69,32.09,41.2,37.71,67.54c3.59,16.83,5.84,33.87,4.88,51.15c-0.55,10.02-1.59,20.03-4.19,29.76
			c-0.6,2.24-0.32,3.13,1.56,4.35c13.72,8.86,20.91,22.05,22.39,37.82c1.31,13.97-4.13,31.22-20.07,39.61
			c-3.9,2.05-4.97,4.76-5.36,8.45c-1.88,17.43-11.55,28.92-27.18,36.03c-9.85,4.47-20.03,6.32-30.74,4.57
			c-5.65-0.93-4.63,4.09-5.87,6.69c-1.38,2.88,2.09,2.46,3.33,2.89c19.39,6.59,38.24,14.38,56.37,23.94
			c4.62,2.44,9.77,0.42,14.67,0.89c9.61,0.93,17.75,4.02,22.1,13.42c1,2.16,2.57,2.55,4.77,2.68c19.34,1.13,36.54,7.72,50.12,21.73
			c10.9,11.26,17.52,24.71,17.16,40.97c-0.1,4.48-1.36,8.74-3.26,12.39c-2.31,4.44-2.52,8.96-3.15,13.58
			c-1.2,8.91-4.53,16.57-12.71,21.31c-1.55,0.9-2.2,2.09-2.67,3.87c-3.05,11.67-10.28,19.36-22.13,22.38
			c-1.29,0.33-2.33,0.58-3.34,1.73c-10.11,11.5-27.79,13.99-41.41,6.14c-6.46-3.72-11.84-8.54-15.88-14.75
			c-1.28-1.96-2.5-2.78-4.83-2.24c-18.93,4.34-36.54-11.56-40.12-26.79c-1.84-7.87-1.77-15.76-0.96-23.69
			c0.21-2.03,0.5-3.81-1.35-5.41c-3.47-3-5.69-6.89-7-11.27c-1.18-3.96-3.91-6.14-7.53-7.94c-15.58-7.72-31.11-15.52-47.52-21.41
			c-2.93-1.05-4.74-0.74-6.73,1.72c-10.12,12.61-17.68,26.74-24.59,41.24c-1.74,3.65-1.04,7.88-1.34,11.77
			c-0.64,8.42-2.18,16.6-4.11,24.76c-0.14,0.6,0.04,1.27,0.1,2.38c7.97-3.38,15.89-5.02,24.22-3.29c0.48,0.1,1.08-0.1,1.48,0.12
			c5.85,3.19,12.05,2.33,18.25,1.65c12.05-1.31,20.3,4.86,26.57,14.18c6.83,10.14,10.42,21.66,13.04,33.49
			c0.35,1.58,0.7,3.9-0.13,4.87c-3.68,4.35-0.5,7.46,1.34,10.96c8.78,16.77,15.21,34.38,17.85,53.17
			c2.17,15.47,1.61,30.7-7.41,44.36c-4.97,7.53-12.16,11.54-21.12,12.04c-2.49,0.14-4.29,0.75-6.13,2.5
			c-17.01,16.17-48.13,16.27-65.23,0.16c-11.35-10.69-18.51-23.59-19.75-39.41c-0.32-4.05-5.9-7.51-10.43-6.49
			c-9.55,2.13-19.08,2.97-28.94,2.05c-18.76-1.74-33.63-10.06-45.12-24.75c-9.6-12.27-15.61-26.42-21.06-40.82
			c-1.23-3.26-2.72-5.61-6.14-7.14c-10.35-4.66-19.62-11.05-27.84-18.9c-1.44-1.38-2.39-1.55-4.17-0.47
			c-4.8,2.91-9.8,5.49-14.7,8.25c-1.48,0.83-2.25,2.22-3.11,3.71c-5.16,8.87-12.05,15.29-23.14,15.27c-1.89,0-3.15,0.78-4.47,2.4
			c-7.3,8.95-16.56,14.47-28.34,15.31c-1.57,0.11-3.12,0.56-4.41,1.93c-15.15,16.01-42.82,10.96-55.5-5.35
			c-10.64-13.7-18.4-28.53-19.71-46.16c-0.13-1.79-1.21-3.05-2.25-4.31c-15.56-18.84-25.51-40.33-30.35-64.22
			c-0.26-1.3-0.45-2.59-1.67-3.4C200.54,590.63,200.54,581.98,200.54,573.33z"/>
		<path class="st6" d="M465.01,593.19c1.26-1.37,0.83-2.82,0-4.1c-8.23-12.77-16.46-25.49-29.08-34.63
			c-10.39-7.52-21.5-12.11-34.53-13.58c-17.31-1.94-31.49,4.66-45.42,13.11c-0.97,0.59-1.66,1.81-2.91,1.19
			c-1.54-0.76-0.42-1.97-0.21-3.01c2.14-10.72,4.87-21.21,11.02-30.5c1.78-2.69,3.26-3.48,6.13-1.17c4.45,3.57,9.83,4.06,15.35,3.41
			c1.54-0.23,3.24,0.67,4.64-0.62c14.48-5.25,23.91-17.07,34.93-26.84c4.95-4.39,9.99-8.69,14.82-13.21
			c2.04-1.91,4.24-1.96,6.43-1.08c10.01,4.02,19.65,8.86,29.26,13.76c3.53,1.8,2.44,3.08-0.05,4.62
			c-7.09,4.39-13.38,9.72-18.18,16.59c-8.18,11.68-12.1,24.18-5.97,38.03c3.9,8.8,13.93,15.19,25.38,15.53
			c16.18,0.48,26.91-8.44,36.67-19.59c1.13-1.3,1.68-3.83,3.81-3.3c1.92,0.47,1.94,2.93,2.48,4.6c2.96,9.26,5.88,18.52,8.61,27.85
			c0.73,2.48,1.67,2.68,3.77,1.62c7.61-3.84,15.3-7.53,22.9-11.38c0.75-0.38,1.31-1.09,2.1-0.38c0.9,0.81,0.74,1.89,0.07,2.69
			c-5.52,6.54-8.13,14.67-12.29,21.96c-1.31,2.3-1.9,4.55-1.83,7.07c0.47,16.42-2.97,32.17-9.39,47.11
			c-6.16,14.36-15.71,25.81-29.78,33.78c-11.94,6.76-24.18,10.45-37.82,11.46c-20.44,1.52-38.17-5.03-54.79-15.94
			c-6.11-4.01-11.76-8.62-16.71-14.02c-0.95-1.04-1.56-1.98-3.2-0.98c-8.26,5.04-16.91,9.37-25.76,13.28
			c-1.37,0.61-1.8,1.54-2.32,2.87c-2.09,5.41-5.68,9.67-10.78,12.52c-0.95,0.53-1.99,1.36-3.22,0.47c-1.35-0.97-0.37-2.02-0.2-3.11
			c2.37-15.25,2.76-30.48,1.84-45.96c-0.95-16-2.94-31.83-5.83-47.47c-2.19-11.85-5.53-23.62-10.23-34.88
			c-0.39-0.94-2.1-2.2-0.51-3.39c1.08-0.81,2.47-0.61,3.84-0.23c7.41,2.06,12.39,7.35,17.2,12.85c1.07,1.22,1.9,2.64,2.88,4.02
			c1.96-1.11,1.47-3.03,1.06-4.03c-2.19-5.33,0.83-7.99,4.81-10.26c7.57-4.32,15.31-7.49,24.17-9.14
			c18.35-3.42,32.68,3.78,45.7,14.88c7.5,6.39,14.72,13.35,18.48,23.04c0.82,2.11,3.03,3.78,4.44,5.83c2.2,3.21,4.31-1.07,6.59-0.45
			C464.48,594.76,464.85,594.16,465.01,593.19z"/>
		<path class="st7" d="M494.73,297.5c4.59-7.31,9.72-14.27,15.85-20.29c7.92-7.77,15.18-5.75,18.67,4.75
			c0.94,2.82,1.41,5.79,2.36,9.79c2.75-4.12,3.78-8.16,4.38-12.18c0.6-4.05,1.9-5.07,5.98-3.57c9.68,3.54,19.47,6.77,28.66,11.48
			c1.42,0.73,3.2,1.03,4.06,2.89c-5.82,3.88-12.49,6.72-16.38,12.95c1.11,1.2,2.11,0.57,3.03,0.49c3.15-0.27,6.28-0.76,9.43-0.88
			c16.79-0.66,25.92,7.53,27.06,24.23c0.16,2.32,0.05,4.65,0.07,6.98c0.01,0.81,0.31,2.23,1.1,1.55c3.73-3.22,4.05,0.96,5.04,2.42
			c7.53,11.05,17.61,17.94,31,19.63c2.13,0.27,3.7,0.73,4.42,3.14c0.73,2.46,0.08,4.16-1.73,5.73c-6.06,5.22-13.28,7.38-21.07,7.99
			c-5.14,0.4-10.3,0.67-15.24,2.29c-10.83,3.56-14.46,13.28-8.28,22.84c1.51,2.34,0.3,3.67-0.44,5.39
			c-4.85,11.37,1.15,22.89,12.57,24.01c5.52,0.54,10.09-1.92,14.1-5.27c3.69-3.08,7.06-6.56,10.45-9.98
			c6.07-6.15,13.04-10.84,21.4-13.2c23.61-6.67,41.18,9.97,35.9,33.93c-4.33,19.64-21.16,31.89-43.73,31.82
			c-10.95-0.03-20.99-3.04-30.02-9.27c-1.37-0.95-2.28-2.05-4.21-0.52c-15.94,12.65-34.82,14.93-54.21,14.53
			c-5.7-0.12-10.55,0.7-15.52,3.54c-7.08,4.04-14.67,7.04-22.89,8.09c-21.12,2.69-36.67-5.55-45.95-24.68
			c-1.46-3-3.37-5.03-6.19-6.74c-14.37-8.71-24.92-20.37-27.86-37.58c-0.31-1.79-0.18-3.66-0.49-5.45c-0.7-4.11,2.88-3.13,4.77-4.21
			c2.67-1.52,2.53,0.88,3.18,2.17c4.04,8.09,12.89,10.81,20.57,5.89c2.53-1.62,3.55-1.33,5.6,0.67c3.51,3.42,7.47,6.48,12.72,6.9
			c-2.37,2.8-5.29,1.01-8,0.95c-4.37-0.07-8.56-1.03-12.61-2.63c-0.87-0.34-1.72-1.4-2.65-0.38c-0.99,1.09-0.16,2.2,0.38,3.19
			c0.81,1.5,1.98,2.95,3.57,3.33c3.65,0.89,4.64,3.58,5.67,6.7c3.06,9.37,7.15,18.24,13.49,25.94
			c11.55,14.05,27.61,14.32,39.09,0.27c8.83-10.8,11.49-23.85,11.58-37.37c0.03-4.35,2.23-7.02,4.18-10.2
			c1.02-1.67,2.21-0.93,3.45-0.54c8.01,2.53,15.63,2.16,21.69-4.26c6.62-7.02,7-15.87,5.95-24.84c-0.39-3.35-2.73-1.49-4.16-0.98
			c-12.79,4.59-25.84,7.58-39.53,6.48c-4.75-0.38-9.47-1.18-14.95-1.88c4.46-3.75,0.72-5.75-0.74-8.07
			c-1.88-2.99-3.49-0.12-4.9,0.62c-21.93,11.52-43.45,9.59-63.99-2.97c-11.72-7.16-17.74-18.58-16.83-32.47
			c0.9-13.7,7.41-24.42,20.27-30.33c10.88-5,21.87-3.54,32.33,1.29c13.37,6.17,23.11,16.29,28.46,30c1.99,5.09,4.66,2.71,7.35,2.08
			c3.95-0.93,1.59-3.74,0.76-5c-3.23-4.9-1.6-8.41,1.74-12.59c5.76-7.2,9.69-15.48,11.14-24.74c0.78-4.97,0.74-9.87-3.91-13.05
			c-4.84-3.31-9.82-2.17-14.55,0.6c-4.63,2.71-8.27,6.59-12.09,10.26C494.53,298.72,494.42,298.15,494.73,297.5z"/>
		<path class="st8" d="M707.9,534.65c28.64-5.99,53.1,0.25,72.11,22.89c8.8,10.48,11.92,21.53,9.72,32.57
			c-2.81-1.4-3.54-5.42-7.78-5.59c3.78,13.36,9.07,26.82-2.25,39.83c-1.7-5.44-2.45-10.44-5.41-14.58
			c-0.67-0.93-1.41-2.34-2.58-1.98c-1.67,0.51-1.1,2.2-0.87,3.45c1.51,8.5,1.2,16.94-1.47,25.14c-2.08,6.41-5.31,12.08-12.7,14.87
			c0.25-6.3-0.3-12.01-3.38-17.14c-0.65-1.08-1.23-2.77-2.8-2.36c-1.63,0.42-1.2,2.21-1.19,3.45c0.05,4.66,0.18,9.3-0.79,13.91
			c-2.5,11.93-10.94,18.06-22.85,15.87c-9.29-1.71-16.92-6.64-22.98-13.92c-1.38-1.65-2.29-3.18,0.26-4.86
			c2.04-1.34,3.17-2.35,4.86,0.68c1.87,3.36,4.37,0.08,6.44-0.47c2.88-0.77,0.91-2.69,0.26-3.89c-4.5-8.24-11.59-13.51-20.02-17.23
			c-1.77-0.78-2.98-0.57-3.23,1.43c-0.24,1.96-3.49,3.97-0.17,5.91c2.55,1.48,5.47,2.34,7.6,4.57c-8.12,6.93-24.03,6.07-31.94-1.79
			c-5.1-5.06-8.34-11.08-9.08-18.39c-1.91-18.85,4.63-35.27,14.39-50.79c0.97-1.54,1.88-3.11,2.76-4.7c0.11-0.2-0.1-0.59-0.17-0.89
			c-7.66,1.04-14.23,9.28-22.79,28.79c-3.65-4.21-5.42-8.81-5.56-14.08c-0.18-6.59,1.03-12.98,3.78-18.92
			c7.88-17.07,19.88-30.29,37.52-37.47c10.13-4.12,20.45-4.75,29.77,2.55c4.07,3.19,3.87,3.73-0.86,5.74
			C713.05,528.72,709.43,530.08,707.9,534.65z"/>
		<path class="st6" d="M690.54,313.89c-0.01,15.5-1.53,30.86-4.33,46.1c-0.21,1.14-0.4,2.3-0.45,3.45
			c-0.04,0.76-0.27,1.76,0.79,2.11c0.99,0.32,1.52-0.46,1.99-1.11c0.48-0.67,0.85-1.42,1.24-2.16c3.54-6.58,3.54-6.58,9.05-1.2
			c12.83,12.5,15.72,31.94,6.9,46.62c-0.85,1.42-1.85,2.77-2.94,4.01c-2,2.26-4.36,4.97-7.07,5.26c-3.8,0.41-3.12-4.16-4.4-6.43
			c-6.96-12.25-17.36-18.73-31.34-18.51c-4.49,0.07-5.49-1.4-6.17-5.21c-4.69-26.48-12.75-51.92-23.9-76.39
			c-4.34-9.54-9.18-18.83-14.71-27.74c-1.61-2.59-1.29-3.69,1.27-5.41c22.03-14.84,25.7-50.36,7.33-69.5
			c-11.24-11.71-31.09-14.54-46.73-6.6c-6.3,3.2-11.86,7.41-16.18,13.04c-4.35,5.69-6.49-0.51-9.02-1.93
			c-3.68-2.07,0.23-3.54,1.42-4.57c19.53-16.94,41.76-24.82,67.72-19.66c13.54,2.69,24.61,9.72,33.9,19.72
			c19.75,21.26,29.59,46.99,33.57,75.28C689.92,293.28,690.55,303.57,690.54,313.89z"/>
		<path class="st9" d="M291.74,722.99c10-12.76,10.79-27.16,6.98-41.19c-4.12-15.17-5.58-30.63-8.29-45.95
			c-2.52-14.28-6.36-28.24-11.95-41.62c-5.76-13.79-14.01-25.65-27.59-33.01c-6.7-3.63-13.85-4.72-21.26-3.66
			c-5.99,0.85-10.25,4.15-12.16,9.93c0.79,1.01,1.4,0.87,1.97,0.44c9.24-6.8,18.34-7.33,28.19-1.4
			c12.94,7.8,21.38,19.38,26.67,33.23c7.69,20.15,12.21,41.08,13.89,62.6c0.2,2.52,0.71,4.9,1.46,7.28
			c3.85,12.24,5.44,24.75,2.79,37.4c-3.27,15.59-13.41,19.58-25.57,9.43c-13.09-10.92-20.08-25.78-23.36-42.41
			c-0.53-2.68,0.4-3.9,3.25-4.18c11.09-1.07,22.15-2.31,33.23-3.5c1.28-0.14,2.55-0.35,3.93-0.54c-0.51-2.38-2.34-2.48-3.88-2.64
			c-12.3-1.23-24.58-1.82-36.48,2.46c-1.71,0.62-2.72,0.53-3.77-0.98c-16.3-23.36-28.88-48.24-30.74-77.29
			c-0.57-8.88,1.04-17.55,5.23-25.61c6.41-12.34,17.59-17.82,31.15-14.87c21.57,4.68,34.18,19.44,42.49,38.63
			c9.62,22.2,14.04,45.69,16.31,69.64c0.24,2.51,0.71,4.89,1.53,7.27c4.73,13.73,6.62,27.78,4.61,42.25
			C308.92,715.19,302.51,721.64,291.74,722.99z"/>
		<path class="st8" d="M371.17,363.82c-0.44,2.53,1.35,3.86,2.32,5.48c3.52,5.89,6.33,12.06,8.19,18.66
			c0.54,1.92,0.81,3.46-1.57,4.41c-5.1,2.04-9.71,5.03-14.46,8.2c-1.87-5.24-4.07-10.04-7.24-14.35c-1.99-2.7-4.21-5.19-6.99-7.05
			c-1.12-0.75-2.73-2.03-3.98-0.68c-1.16,1.23,0.43,2.42,1.08,3.46c2.75,4.37,5.15,8.91,7.03,13.73c2.4,6.14,4.45,11.98-0.56,18.12
			c-2.26,2.76-3.16,6.77-2.21,10.46c1.1,4.31-1.68,4.91-4.54,5.25c-2.81,0.33-6.02,1.27-6.65-3.47c-1.17-8.93-6-16.09-11.93-22.56
			c-1.33-1.45-2.97-2.66-4.58-3.82c-1.17-0.84-2.73-2.07-3.95-0.6c-0.9,1.07,0.23,2.48,0.95,3.58c3.76,5.7,7.24,11.57,9.59,18.01
			c1.02,2.79,1.86,5.69,2.42,8.61c0.96,4.9,0.14,9.41-4.44,12.27c-4.54,2.83-9.03,1.59-13.13-1.07c-4.79-3.1-8.68-7.21-12-11.85
			c-0.88-1.22-1.89-2.94-3.46-2.19c-1.63,0.77-0.72,2.68-0.32,4.02c2.51,8.42,7.79,14.64,15.67,18.43
			c10.21,4.92,19.4,1.58,23.66-8.92c1.36-3.35,2.69-4.29,6.05-3.46c1.7,0.42,4.09,0.6,5.36-0.28c4.5-3.14,7.67-0.61,11.44,1.52
			c9.64,5.43,26.94,0.9,32.65-8.26c0.64-1.02,2.01-2.22,0.82-3.47c-0.97-1.03-2.19,0.04-3.17,0.54c-4.62,2.32-9.34,4.37-14.46,5.31
			c-1.79,0.33-3.62,0.63-5.43,0.63c-4.87-0.01-9.37-1.13-11.85-5.85c-2.56-4.89-0.41-9.15,2.64-12.84
			c7.19-8.68,16.84-13.29,27.58-15.89c1.45-0.35,2.95-0.51,4.43-0.74c13.29-2.07,21.82,8.23,17.32,21
			c-2.35,6.67-7.02,11.6-12.52,15.8c-9.66,7.37-20.62,12.03-32.22,15.34c-1.86,0.53-3.95,0.64-5.33,2.34
			c4.46,3.55,13.78,2.92,27.6-1.86c0.62,3.81-1.6,6.38-3.84,8.71c-5.39,5.61-11.9,9.63-19.27,12.04
			c-15.95,5.22-32.19,6.55-48.68,2.86c-5.11-1.14-9.81-3.2-13.83-6.58c-3.87-3.25-6.18-7.28-5.66-13.19
			c9.35,4.19,18.58,7.89,29.45,4.55c-1.88-2.25-3.88-2.41-5.73-2.86c-6.52-1.58-12.73-3.94-18.14-7.97
			c-13.1-9.75-16.92-22.97-13.55-38.46c6.74-30.94,40.72-59.11,72.3-60.19c21.13-0.72,38.68,14.29,40.54,34.61
			c0.31,3.4,0.4,6.27-4.44,4.62c-0.61-0.21-1.39-0.35-1.97-0.15c-6.66,2.19-9.39-0.74-11.15-7.08c-1.55-5.58-5.36-10.28-9.76-14.24
			C375.53,364.86,373.77,363.42,371.17,363.82z"/>
		<path class="st6" d="M554.29,763.65c-6.01,0.38-12.04,0.85-17.44-3.23c3.1-3.58,8.07-5.08,9.63-9.85
			c-2.38-1.28-4.22,0.05-5.97,0.67c-12.47,4.42-25.24,7.91-38.44,8.3c-15.33,0.44-28.95-4.32-40.26-15.48
			c-11.37-11.22-17.55-25.41-24.43-39.29c-0.49-0.99-0.6-1.91,0.25-2.71c0.85-0.8,1.69-0.35,2.71-0.13
			c23.22,5.02,45.36,1.9,66.41-9.05c12.04-6.26,21.56-15.46,28.55-26.84c3.98-6.48,17.55-8.19,23.53-2.76
			c9.91,9.01,15.1,20.29,17.94,33.27c2.34,10.7,2.97,21.44,2.02,32.11c-1.17,13.22-4.79,25.76-17.97,32.69
			C558.51,761.74,556.06,761.74,554.29,763.65z"/>
		<path class="st10" d="M584.62,480.89c2.85,0.18,6.3,0.32,9.69,1.37c12.41,3.84,24.95,7.3,37.26,11.41
			c8.51,2.85,16.69,6.68,25.11,9.81c6.37,2.37,12.73,4.72,18.81,7.77c0.82,0.41,2.07,0.06,2.32,1.41c0.31,1.65-1.1,1.73-2.03,2.34
			c-17.28,11.33-30.09,26.04-35.55,46.46c-2.05,7.65-2.04,7.25-9.36,3.36c-13.71-7.3-28.08-13.12-42.71-18.4
			c-8.71-3.14-17.51-5.88-26.32-8.63c-1.65-0.52-3.72-1.07-3.74,1.43c-0.02,2.45-2.96,5.29,0.36,7.38c2.83,1.79,6.11,2.59,9.44,2.95
			c2.44,0.26,2.87,1.08,1.45,3.16c-3.05,4.47-6.86,7.47-12.18,9.27c-6.85,2.33-13.37,5.69-19.93,8.82
			c-2.36,1.13-3.17,0.77-4.24-1.71c-4.22-9.73-5.91-20.29-10.24-30.02c-1.52-3.41,2.24-6.68,4.1-9.61
			c7.17-11.3,14.85-22.42,24.72-31.44C560.73,489.68,570.21,480.92,584.62,480.89z"/>
		<path class="st11" d="M547.09,652.24c8.11-11.34,27.35-12.25,37.88-2.12c8.69,8.36,13.84,19.1,18.86,29.73
			c9.15,19.38,17.9,38.98,22.3,60.14c3.26,15.7,3.68,31.39-2.16,46.6c-6.77,17.62-19.55,27.96-38.67,28.77
			c-14.75,0.63-26.23-6.15-34.49-18.27c-4.15-6.09-7.2-12.72-8.65-20c-0.42-2.1-1.07-4.65,2.65-4.22
			c24.71,2.85,38.99-17.3,41.63-36.78c3.62-26.65-0.98-51.63-18.11-73.29C563.01,656.1,555.9,652.56,547.09,652.24z"/>
		<path class="st11" d="M232.39,540.16c8.18-9.36,17.68-14.4,28.83-16.16c19.89-3.15,37.75,1.09,52.04,16.02
			c7.47,7.8,12.07,17.48,15.9,27.47c7.9,20.62,12.27,42.05,14.19,64.01c1.54,17.6,1.93,35.18-1.12,52.68
			c-2.14,12.25-7.55,21.97-20.2,26.06c-5.26,1.71-5.44,1.49-4.85-4.02c1.7-15.79,0-31.16-5.87-45.99
			c-2.44-6.16-1.92-12.77-2.7-19.16c-2.41-19.73-6.44-39.06-14.32-57.35c-8.99-20.87-22.54-37.21-45.93-42.83
			C243.45,539.71,238.45,540.45,232.39,540.16z"/>
		<path class="st6" d="M502.8,215.51c14.15,7.35,28.1,14.86,39.85,25.79c11.73,10.92,21.39,23.48,29.88,37.21
			c-11.06-4.66-22.25-8.62-33.65-12c-1.78-0.53-1.89-2.09-2.43-3.46c-2.84-7.11-8.91-9.3-15.75-5.7c-3.3,1.73-5.65,4.53-8.2,7.17
			c-6.59,6.83-13.11,13.7-18.67,21.42c-1.09,1.52-2.07,2.74-3.69,0.48c-12.04-16.8-22.7-34.24-22.94-55.79
			c-0.21-18.87,13.59-30.91,32.41-29.18c14.09,1.3,26.72,6.19,38.51,13.88c41.43,27.05,69.02,65.21,88.51,109.89
			c2.99,6.85,5.39,13.95,8.11,20.92c1.05,2.69,1.02,4.19-2.57,3.14c-12.14-3.56-18.98-12.87-25.06-23
			c-0.93-1.55,0.25-2.89,0.79-4.22c1.96-4.83,3.07-9.81,3.04-15.05c-0.07-12.07-6.49-19.55-18.48-20.33
			c-4.14-0.27-5.91-1.95-7.83-5.22c-12.93-22.07-29.11-41.28-50.48-55.73c-7.93-5.37-16.61-9.07-26.02-10.99
			C506.52,214.42,504.9,213.96,502.8,215.51z"/>
		<path class="st6" d="M455.14,538.36c0.28-1.97-0.55-4.33,0.68-6.54c0.59-1.05,1.37-1.49,2.42-1.13c0.95,0.32,0.83,1.21,0.75,2.08
			c-1.58,17.97,14.32,23.97,26.43,19.76c14.5-5.04,24.2-18.95,19.86-35.01c-1.53-5.67-5.2-9.58-10.63-11.34
			c-3.79-1.22-7.82-2.69-11.96-0.79c-0.87,0.4-2.04,0.71-2.52-0.56c-0.52-1.35,0.25-2.24,1.5-2.66c9.42-3.11,17.47-9.54,28.37-9.3
			c12.34,0.26,23.95-4.18,34.7-10.14c5.07-2.81,10.51-0.44,15.52-2.27c0.35-0.13,1.26,0.5,1.5,0.99c0.44,0.86-0.15,1.42-0.94,1.93
			c-16.41,10.5-28.91,24.91-40.04,40.59c-4.79,6.75-8.58,14.24-13.63,20.78c-7.88,10.21-19.2,19.7-33.99,17.25
			c-10.46-1.73-17.51-9.15-18.01-19.84C455.09,540.99,455.14,539.83,455.14,538.36z"/>
		<path class="st12" d="M428.94,453.91c-2.8,1.12-5.55,2.41-8.42,3.32c-10.41,3.33-20.78,7.2-29.67,13.32
			c-11.02,7.58-21.24,16.52-26.77,29.4c-0.13,0.3-0.45,0.61-0.42,0.89c0.84,7.71-3.91,9.51-10.18,9.54
			c-9.85,0.04-19.81,1.9-29.08-3.85c-7.9-4.9-13.06-10.99-13.01-20.7c0.03-6.1-0.14-5.89,5.6-4.64c18.83,4.08,37.66,4.04,55.32-4.11
			c9.4-4.34,19.15-9.46,24.01-19.75c1.44-3.04,3.93-2.22,6.26-2.77c7.81-1.86,15.87-0.57,23.69-2.09
			C427.11,452.29,428.32,452.1,428.94,453.91z"/>
		<path class="st8" d="M565.67,222.71c-3.11-1.52-1.76-3.18-0.27-5.03c10.76-13.4,29.36-18.81,43.76-12.67
			c14.82,6.32,22.73,21.32,20.23,39.37c-1.57,11.31-5.68,21.45-15.76,28.18c-2.37,1.58-3.81,1.83-5.47-1.01
			c-2.43-4.13-5.38-7.96-8.1-11.92c1.63-2.68,4.1-1.55,6.29-1.28c3.37,0.41,4.8-0.87,5.07-4.33c0.88-11.24,1.55-22.5,2.67-33.73
			c0.39-3.9-0.49-4.63-4.13-3.29c-5.14,1.9-10.12,4.22-15.14,6.41c-4.6,2.01-6.29,1.05-7.14-3.93c-0.31-1.81-0.23-3.64-0.25-5.47
			c-0.03-1.82,0.02-3.64-0.69-5.72c-5.36,3.81-10.38,7.76-15.34,11.77C569.69,221.45,567.97,222.66,565.67,222.71z"/>
		<path class="st9" d="M627.35,798.87c12.19-26.53,8.95-52.29,0.32-77.96c-6.73-20.04-15.47-39.23-25.25-57.95
			c-3.24-6.2-7.61-11.61-12.78-17.18c7.74-2.08,13.65-0.04,18.42,5.2c8.2,9.02,11.74,20.28,14.71,31.77
			c0.3,1.16,0.47,2.57-0.88,3.04c-4.47,1.57-2.45,3.81-0.91,6.26c13.01,20.54,21.62,42.65,23.03,67.14
			c0.61,10.54-0.3,20.96-5.67,30.44C636.01,793.75,632.9,797.1,627.35,798.87z"/>
		<path class="st11" d="M598.69,409.58c-0.27-3.01,1.32-5.75,3.33-8.23c1.32-1.62,1.18-2.39-0.45-3.91
			c-5.39-5.05-3.63-11.9,3.55-13.57c5.8-1.35,11.76-2.03,17.65-2.96c6.15-0.97,11.94-2.96,17.13-6.39c2.18-1.44,3.11-1.27,3.63,1.28
			c1.01,5.04,2.11,10.07,3.11,15.11c0.32,1.65,0.53,3.34-1.55,4.19c-10.27,4.21-17.39,12.62-25.71,19.43
			c-2.47,2.02-5.1,3.77-8.16,4.68C604.37,421.24,598.71,417.02,598.69,409.58z"/>
		<path class="st6" d="M450.91,455.46c4.23-0.44,6.5,2.97,9.39,4.93c1.91,1.3,0.09,1.98-1.14,2.58
			c-12.94,6.22-23.74,15.5-34.78,24.45c-7.85,6.36-13.94,14.62-22.37,20.35c-4.92,3.35-9.8,6.57-15.74,8
			c-10.57,2.55-18.36-4.92-15.85-15.36c0.24-1.01,0.38-2.03,1.46-2.34c0.94-0.27,1.44,0.46,1.88,1.23c4.51,7.89,5.83,8.25,15.7,7.3
			c11.92-1.14,29.76-16.73,31.58-27.21c0.75-4.36,0.95-8.19-2.14-11.63c-1.16-1.29-1.84-2.32,0.38-3.35
			C429.36,459.74,439.93,456.86,450.91,455.46z"/>
		<path class="st13" d="M501.17,524.82c-0.27,13.51-13.98,25.42-26.44,22.97c-6.19-1.21-10.61-5.98-11.35-12.24
			c-1.46-12.27,11.49-26.24,23.78-25.66C495.7,510.3,501.34,516.29,501.17,524.82z"/>
		<path class="st6" d="M565.67,222.71c7.17-5.34,13.83-11.35,21.78-16.4c2.23,5.77,0.55,11.92,2.6,17.59
			c7.35-3.09,14.57-5.99,21.67-9.16c3.52-1.57,4.23-0.52,3.93,2.97c-1.12,12.9-2.11,25.81-3.04,38.73
			c-0.18,2.51-1.04,3.47-3.65,3.33c-2.95-0.16-5.93-1.03-8.9-0.15c-0.88-1.26-1.76-2.53-2.65-3.79c-1.02-2.54,0.09-4.9,0.62-7.3
			c1.48-6.61,3.09-13.19,4.38-20.32c-5.04,1.7-9.32,3.82-13.76,5.53c-4.41,1.7-5.58,0.91-6.14-3.83c-0.29-2.47-0.66-4.91-1.2-7.46
			c-3.45,1.43-4.65,5.86-8.72,6.19C570.29,226.67,567.98,224.69,565.67,222.71z"/>
		<path class="st6" d="M526.47,432.67c-2.62,10.99-6.26,20.12-14.89,26.24c-7.18,5.1-19.33,2.22-23.88-5.28
			c-3.22-5.31,0.92-13.71,7-14.2C505.18,438.58,515.44,436.66,526.47,432.67z"/>
		<path class="st14" d="M385.49,501.58c-6.12,0-8.69-3.49-6.97-9.46c3.01-10.47,18.96-22.45,29.87-22.43
			c6.47,0.01,9.03,3.5,7.11,9.71C412.17,490.17,396.73,501.58,385.49,501.58z"/>
		<path class="st15" d="M572.59,228.65c3.16-2.89,6.32-5.79,9.89-9.05c0.42,3.59,1.07,7.2,1.2,10.84c0.11,3.07,1,3.68,3.81,2.43
			c5.22-2.3,10.56-4.34,16.65-6.82c-1.87,10.65-4.2,20.24-6.72,29.78C589.33,246.61,581.55,237.09,572.59,228.65z"/>
		<path class="st16" d="M527.48,419.98c0.75,3.43,0.38,6.06-3.55,7.45c-12.52,4.42-25.34,6.8-38.65,6.17
			c-2.7-0.13-5.32-0.66-7.28-2.73c-0.9-0.95-2.14-2.06-1.7-3.4c0.54-1.69,2.28-0.79,3.44-0.79c13.01,0.02,25.93-0.75,38.6-3.99
			C521.38,421.9,524.37,420.9,527.48,419.98z"/>
		<path class="st17" d="M487.13,493.23c-1.51-0.46-3.22-0.91-4.79-1.95c-9.11-5.97-18.98-10.37-29.19-14.07
			c-1.04-0.37-2.5-0.53-2.62-1.92c-0.14-1.63,1.52-1.41,2.46-1.92c3.03-1.63,6.09-3.21,9.06-4.93c2.13-1.24,3.45-1.02,4.8,1.29
			c5.16,8.82,12.91,14.76,21.95,19.18c1.21,0.59,3.26,0.3,2.97,2.57C491.69,492.21,488.8,493.28,487.13,493.23z"/>
		<path class="st18" d="M498.91,310.8c-1.51,0.35-1.03,4.25-3.84,2.21c-2.26-1.64-0.52-3.24,0.31-4.69
			c3.48-6.08,7.67-11.59,13.7-15.34c7.51-4.67,12.17-2.18,12.71,6.62c-1.45,1.76-2.94,0.37-4.38,0c-1.93-0.5-3.82-0.58-5.72-0.03
			c-3.55,1.21-5.44,4.42-8.07,6.74C501.9,307.64,501.04,309.89,498.91,310.8z"/>
		<path class="st19" d="M600.47,473.86c3.94-2.17,6.8-3.82,9.73-5.34c2.06-1.07,11.66,3.1,12.35,5.27c0.95,2.96-1.44,5.82-4.49,5.04
			C612.49,477.42,606.99,475.72,600.47,473.86z"/>
		<path class="st20" d="M518.73,308.76c-5.15-3.61-8.07-3.09-13.05,2.44c-1.1,1.23-1.9,2.73-3,3.95c-0.84,0.93-0.72,3.53-2.94,2.27
			c-1.76-0.99-0.94-2.54-0.11-3.89c0.25-0.42,0.37-0.92,0.55-1.38c0.3-2.49,1.68-4.35,3.49-5.97c2.62-2.25,4.4-5.52,8.01-6.57
			C518.67,298,520.67,300.59,518.73,308.76z"/>
		<path class="st21" d="M492.99,419.67c1.18-0.58,2.81-0.84,3.48-1.78c4.78-6.74,9.36-3.18,14.91,0.66
			c-6.59,1.19-12.38,2.38-18.4,2.04c-0.34-0.21-0.45-0.41-0.33-0.62C492.76,419.77,492.87,419.67,492.99,419.67z"/>
		<path class="st22" d="M514.75,313.65c-0.53,2.12-1.37,4.22-3.91,4.43c-2.08,0.18-2.29-1.63-2.08-3.14
			c0.31-2.27,1.38-4.23,3.97-4.27C514.4,310.64,514.63,312.2,514.75,313.65z"/>
		<path class="st23" d="M518.73,308.76c0.09-0.99,0.24-1.97,0.27-2.96c0.17-5.49-1.5-6.54-8.05-5.08c-0.62-0.65-0.6-1.31-0.05-1.98
			c3.9-3.15,7.27,0.57,10.9,0.85C520.77,302.65,519.75,305.7,518.73,308.76z"/>
		<path class="st24" d="M492.99,419.67c0.02,0.31,0.02,0.61-0.01,0.92c-6.02,1.18-12.04,1.45-18.07,0.11c2.59-0.96,5.49,0.72,8-0.95
			C486.27,419.72,489.63,419.69,492.99,419.67z"/>
		<path class="st25" d="M494.73,297.5c0.11,0.57,0.23,1.13,0.34,1.7c-0.25,2.9-2.25,4.8-3.92,6.88c-0.73-0.14-1.15-0.6-1.3-1.32
			C491.45,302.32,492.32,299.39,494.73,297.5z"/>
		<path class="st26" d="M504.09,306.9c-1.31,1.75-2.61,3.51-3.92,5.26c-0.42-0.45-0.84-0.91-1.25-1.36c0.7-2.2,2.11-3.89,3.88-5.31
			C503.49,305.72,503.95,306.16,504.09,306.9z"/>
		<path class="st27" d="M554.29,763.65c1.01-4.06,3.9-2.81,6.52-2.31C558.86,762.73,556.65,763.41,554.29,763.65z"/>
		<path class="st28" d="M489.86,304.77c0.43,0.44,0.87,0.88,1.3,1.32c-0.38,0.96-0.7,2.76-1.85,2.07
			C487.84,307.27,488.67,305.76,489.86,304.77z"/>
		<path class="st29" d="M465.01,593.19c0.67,0.43,1.74,1.11,1.03,1.76c-0.86,0.8-2.2,0.8-2.65-0.84
			C463.93,593.8,464.47,593.5,465.01,593.19z"/>
		<path class="st30" d="M390.02,523.3c-1.32,1.93-3,1.2-4.65,0.61C386.92,523.71,388.47,523.5,390.02,523.3z"/>
		<path class="st31" d="M529.88,354.38c-0.03-16.81,12.45-35.68,27.56-41.92c4.79-1.98,9.67-2.36,14.65-1.43
			c8.07,1.51,13.32,7.6,13.57,16.17c0.39,13.22-5.72,24-13.59,33.93c-3.31,4.17-7.32,7.77-11.94,10.46
			c-6.57,3.82-13.53,6.07-20.74,1.87C532.17,369.25,529.81,362.36,529.88,354.38z"/>
		<path class="st32" d="M668.7,433.09c-7.11-5.26-13.83-7.81-21.67-4.54c4.96,7.33,5.19,11.69,1.01,16.7
			c-2.22-1.68-1.1-4.34-1.84-6.45c-2.25-6.38-6.06-7.6-10.92-3.09c-2.3,2.14-4.3,4.6-6.46,6.89c-0.68,0.72-1.52,1.57-2.56,1.14
			c-1.19-0.48-0.8-1.72-0.57-2.6c2.3-8.79,7.7-15.09,16.04-18.43c7.7-3.08,15.54-3.63,22.72,1.77
			C666.87,426.3,668.81,428.46,668.7,433.09z"/>
		<path class="st33" d="M731.64,563.27c-0.05,3.62-2.46,5.48-5.91,4.57c-4.57-1.21-10.45-8.07-10.93-12.7
			c-0.13-1.27-0.1-2.52,1.45-2.65C721.65,552.04,731.7,557.08,731.64,563.27z"/>
		<path class="st34" d="M701.46,571.89c0.42-2.4-0.5-6.56,2.54-7.46c2.97-0.88,4.84,2.77,6.51,5.19c1.82,2.64,2.86,5.56,2.46,8.84
			c-0.28,2.31-1.38,4.07-3.71,4.75c-2.46,0.72-4.1-0.6-5.43-2.45C702.04,578.24,701.47,575.36,701.46,571.89z"/>
		<path class="st35" d="M732.33,542.16c3.94-0.06,7.27,0.73,9.97,3.23c1.54,1.43,2.46,3.14,1.55,5.32
			c-0.93,2.23-2.83,2.58-4.93,2.44c-3.48-0.23-6.28-1.96-8.81-4.16c-1.61-1.39-3.95-3.02-3.21-5.17
			C727.71,541.46,730.68,542.59,732.33,542.16z"/>
		<path class="st36" d="M477.19,539.02c9.09-3.35,14.62-9.64,16.96-19.02c2.9,5.91,0.95,10.67-2.76,14.7
			C487.69,538.72,482.98,540.78,477.19,539.02z"/>
		<path class="st37" d="M388.53,495.02c8.43-3.17,15.15-7.3,18.55-16.58C409.12,488.51,399.12,497.01,388.53,495.02z"/>
		<path class="st38" d="M504.09,306.9c-0.43-0.47-0.86-0.94-1.29-1.41c2.27-2.76,4.31-5.81,8.1-6.75c0.02,0.66,0.03,1.32,0.05,1.98
			C508.66,302.78,506.37,304.84,504.09,306.9z"/>
		<path class="st39" d="M544.71,367c0.41,0.96,0.81,1.93,1.23,2.93c-5.97-0.76-9.8-4.95-10.77-11.71
			c-2.19-15.25,10.43-36.26,25-41.28c12.2-4.21,21.66,2.44,20.36,12.32c-1.28,0.16-2.15-0.49-2.89-1.42
			c-1.34-0.6-2.79-0.89-4.18-1.37c-1.52-0.52-3.02-0.44-4.53,0.06c-1.99,0.45-4.03,0.77-5.5,2.4c-0.35,0.31-0.74,0.56-1.14,0.79
			c-9.5,5.97-14.73,14.9-17.65,25.43c-0.78,3.01-0.63,6.03-0.12,9.05C544.78,365.11,544.29,366.08,544.71,367z"/>
		<path class="st40" d="M576.66,329c2.31,2.82,2.52,6,1.62,9.88c-2.7-2.24-5.42-4-8.96-3.12c-4.61,1.16-7.89,4.18-10.72,7.71
			c-7.21,8.99-8.01,17.75-2.3,24.03c-4.25,3.84-7.46,1.76-10.43-1.78c-0.39-0.4-0.69-0.85-0.9-1.37c-0.71-2.94-0.49-5.91-0.25-8.88
			c1.96-11.69,8.94-19.98,18.13-26.77l-0.1,0.07C568.71,325.59,572.8,325.66,576.66,329z"/>
		<path class="st41" d="M545.75,364.69c0.04,0.35,0.08,0.69,0.13,1.04c-0.39,0.43-0.77,0.85-1.16,1.28
			c-1.02-0.36-1.03-1.18-0.92-2.05c-0.64-3.47-0.67-6.93,0.02-10.4c1.72-10.83,8.19-18.68,16.19-25.51
			c0.61-0.52,1.89-0.25,2.86-0.34c-1.7,3.73-5.43,5.58-7.97,8.56c-4.4,5.17-7.57,10.88-9.09,17.5
			C545.05,358.07,545.12,361.38,545.75,364.69z"/>
		<path class="st42" d="M572.66,344.7c-0.63,2.72-1.92,4.98-5.08,5.14c-2.27,0.12-3.31-1.4-3.12-3.52c0.26-2.97,1.87-5.05,4.94-5.25
			C571.56,340.93,572.54,342.53,572.66,344.7z"/>
		<path class="st43" d="M576.66,329c-4.6-2.42-9.27-0.6-13.91-0.23c0.56-3.29,3.02-3.22,5.5-3.13c1.96-0.44,3.91-0.58,5.87,0.01
			c1.49,0.22,3.03,0.36,3.54,2.18C577.32,328.22,576.99,328.61,576.66,329z"/>
		<path class="st44" d="M543.8,354.55c-0.01,3.47-0.01,6.93-0.02,10.4C542.43,361.48,542.51,358.02,543.8,354.55z"/>
		<path class="st45" d="M574.12,325.66c-1.95,0-3.91,0-5.86-0.01C570.2,324.69,572.16,324.79,574.12,325.66z"/>
		<path class="st44" d="M545.75,364.69c-1.39-3.31-1.47-6.62,0.05-9.92C545.78,358.07,545.76,361.38,545.75,364.69z"/>
	</g>
</g>
</svg>
